<?xml version="1.0" encoding="UTF-8"?>
<svg width="24px" height="24px" viewBox="0 0 24 24" version="1.1" xmlns="http://www.w3.org/2000/svg">
    <path d="M12,2 C17.5228,2 22,6.47715 22,12 C22,17.5228 17.5228,22 12,22 C6.47715,22 2,17.5228 2,12 C2,6.47715 6.47715,2 12,2 Z M12,4 C7.58172,4 4,7.58172 4,12 C4,16.4183 7.58172,20 12,20 C16.4183,20 20,16.4183 20,12 C20,7.58172 16.4183,4 12,4 Z M12,7 C13.1046,7 14,7.89543 14,9 L14,11 L16,11 C17.1046,11 18,11.8954 18,13 C18,14.1046 17.1046,15 16,15 L14,15 L14,17 C14,18.1046 13.1046,19 12,19 C10.8954,19 10,18.1046 10,17 L10,15 L8,15 C6.89543,15 6,14.1046 6,13 C6,11.8954 6.89543,11 8,11 L10,11 L10,9 C10,7.89543 10.8954,7 12,7 Z" fill="#10b981"/>
</svg> 