<?xml version="1.0" encoding="UTF-8"?>
<svg width="24px" height="24px" viewBox="0 0 24 24" version="1.1" xmlns="http://www.w3.org/2000/svg">
    <path d="M15.93 1.78h2.49c.54 0 .98.44.98.98v15.95c0 .54-.44.98-.98.98h-2.49c-.54 0-.98-.44-.98-.98V2.76c0-.54.44-.98.98-.98zM5.59 1.78h2.49c.54 0 .98.44.98.98v15.95c0 .54-.44.98-.98.98H5.59c-.54 0-.98-.44-.98-.98V2.76c0-.54.44-.98.98-.98z" fill="#000000"/>
    <path d="M2.74 8.63h18.52c.54 0 .98.44.98.98v2.49c0 .54-.44.98-.98.98H2.74c-.54 0-.98-.44-.98-.98V9.61c0-.54.44-.98.98-.98z" fill="#000000"/>
</svg> 